<mxfile host="app.diagrams.net" modified="2024-03-09T12:25:43.645Z" agent="Mozilla/5.0 (Windows NT 10.0; Win64; x64) AppleWebKit/537.36 (KHTML, like Gecko) Chrome/122.0.0.0 Safari/537.36" etag="oikPSvcitdlkkdunQX-A" version="24.0.0" type="github">
  <diagram name="第 1 页" id="YS-gcHIz9xfNu4QYaieq">
    <mxGraphModel dx="226" dy="462" grid="0" gridSize="10" guides="1" tooltips="1" connect="1" arrows="1" fold="1" page="1" pageScale="1" pageWidth="827" pageHeight="1169" math="0" shadow="0">
      <root>
        <mxCell id="0" />
        <mxCell id="1" parent="0" />
        <mxCell id="KS6Kzm3F6lAYBaxC476L-4" style="edgeStyle=orthogonalEdgeStyle;rounded=0;orthogonalLoop=1;jettySize=auto;html=1;exitX=0.5;exitY=1;exitDx=0;exitDy=0;entryX=0.5;entryY=0;entryDx=0;entryDy=0;" edge="1" parent="1" source="KS6Kzm3F6lAYBaxC476L-1" target="KS6Kzm3F6lAYBaxC476L-2">
          <mxGeometry relative="1" as="geometry" />
        </mxCell>
        <mxCell id="KS6Kzm3F6lAYBaxC476L-10" value="" style="edgeStyle=orthogonalEdgeStyle;rounded=0;orthogonalLoop=1;jettySize=auto;html=1;" edge="1" parent="1" source="KS6Kzm3F6lAYBaxC476L-1" target="KS6Kzm3F6lAYBaxC476L-9">
          <mxGeometry relative="1" as="geometry" />
        </mxCell>
        <mxCell id="KS6Kzm3F6lAYBaxC476L-11" style="edgeStyle=orthogonalEdgeStyle;rounded=0;orthogonalLoop=1;jettySize=auto;html=1;entryX=0;entryY=0.75;entryDx=0;entryDy=0;" edge="1" parent="1" source="KS6Kzm3F6lAYBaxC476L-1" target="KS6Kzm3F6lAYBaxC476L-7">
          <mxGeometry relative="1" as="geometry" />
        </mxCell>
        <mxCell id="KS6Kzm3F6lAYBaxC476L-1" value="&lt;font face=&quot;Comic Sans MS&quot;&gt;rt_sched_class&lt;/font&gt;" style="rounded=1;whiteSpace=wrap;html=1;strokeWidth=2;fillWeight=4;hachureGap=8;hachureAngle=45;fillColor=#dae8fc;strokeColor=#6c8ebf;" vertex="1" parent="1">
          <mxGeometry x="191" y="219" width="98" height="39" as="geometry" />
        </mxCell>
        <mxCell id="KS6Kzm3F6lAYBaxC476L-5" style="edgeStyle=orthogonalEdgeStyle;rounded=0;orthogonalLoop=1;jettySize=auto;html=1;exitX=0.5;exitY=1;exitDx=0;exitDy=0;" edge="1" parent="1" source="KS6Kzm3F6lAYBaxC476L-2" target="KS6Kzm3F6lAYBaxC476L-3">
          <mxGeometry relative="1" as="geometry" />
        </mxCell>
        <mxCell id="KS6Kzm3F6lAYBaxC476L-13" style="edgeStyle=orthogonalEdgeStyle;rounded=0;orthogonalLoop=1;jettySize=auto;html=1;exitX=1;exitY=0.5;exitDx=0;exitDy=0;" edge="1" parent="1" source="KS6Kzm3F6lAYBaxC476L-2" target="KS6Kzm3F6lAYBaxC476L-12">
          <mxGeometry relative="1" as="geometry" />
        </mxCell>
        <mxCell id="KS6Kzm3F6lAYBaxC476L-2" value="&lt;font face=&quot;Comic Sans MS&quot;&gt;fair_sched_class&lt;/font&gt;" style="rounded=1;whiteSpace=wrap;html=1;strokeWidth=2;fillWeight=4;hachureGap=8;hachureAngle=45;fillColor=#dae8fc;strokeColor=#6c8ebf;" vertex="1" parent="1">
          <mxGeometry x="191" y="282" width="98" height="39" as="geometry" />
        </mxCell>
        <mxCell id="KS6Kzm3F6lAYBaxC476L-15" style="edgeStyle=orthogonalEdgeStyle;rounded=0;orthogonalLoop=1;jettySize=auto;html=1;exitX=1;exitY=0.5;exitDx=0;exitDy=0;entryX=0;entryY=0.5;entryDx=0;entryDy=0;" edge="1" parent="1" source="KS6Kzm3F6lAYBaxC476L-3" target="KS6Kzm3F6lAYBaxC476L-14">
          <mxGeometry relative="1" as="geometry" />
        </mxCell>
        <mxCell id="KS6Kzm3F6lAYBaxC476L-3" value="&lt;font face=&quot;Comic Sans MS&quot;&gt;idle_sched_class&lt;/font&gt;" style="rounded=1;whiteSpace=wrap;html=1;strokeWidth=2;fillWeight=4;hachureGap=8;hachureAngle=45;fillColor=#dae8fc;strokeColor=#6c8ebf;" vertex="1" parent="1">
          <mxGeometry x="191" y="347" width="98" height="39" as="geometry" />
        </mxCell>
        <mxCell id="KS6Kzm3F6lAYBaxC476L-6" value="&lt;font style=&quot;font-size: 14px;&quot; face=&quot;Comic Sans MS&quot;&gt;调度器类&lt;/font&gt;" style="text;html=1;align=center;verticalAlign=middle;resizable=0;points=[];autosize=1;strokeColor=none;fillColor=none;" vertex="1" parent="1">
          <mxGeometry x="203" y="173" width="74" height="30" as="geometry" />
        </mxCell>
        <mxCell id="KS6Kzm3F6lAYBaxC476L-7" value="&lt;font face=&quot;Comic Sans MS&quot;&gt;RR Queue&lt;/font&gt;" style="rounded=1;whiteSpace=wrap;html=1;strokeWidth=2;fillWeight=4;hachureGap=8;hachureAngle=45;sketch=1;" vertex="1" parent="1">
          <mxGeometry x="362" y="199" width="81" height="26.5" as="geometry" />
        </mxCell>
        <mxCell id="KS6Kzm3F6lAYBaxC476L-9" value="&lt;font face=&quot;Comic Sans MS&quot;&gt;FIFO Queue&lt;/font&gt;" style="rounded=1;whiteSpace=wrap;html=1;strokeWidth=2;fillWeight=4;hachureGap=8;hachureAngle=45;sketch=1;" vertex="1" parent="1">
          <mxGeometry x="362" y="246" width="81" height="26.5" as="geometry" />
        </mxCell>
        <mxCell id="KS6Kzm3F6lAYBaxC476L-12" value="&lt;font face=&quot;Comic Sans MS&quot;&gt;CFS Queue&lt;/font&gt;" style="rounded=1;whiteSpace=wrap;html=1;strokeWidth=2;fillWeight=4;hachureGap=8;hachureAngle=45;sketch=1;" vertex="1" parent="1">
          <mxGeometry x="362" y="288.25" width="81" height="26.5" as="geometry" />
        </mxCell>
        <mxCell id="KS6Kzm3F6lAYBaxC476L-14" value="&lt;font face=&quot;Comic Sans MS&quot;&gt;IDLE Task&lt;/font&gt;" style="rounded=1;whiteSpace=wrap;html=1;strokeWidth=2;fillWeight=4;hachureGap=8;hachureAngle=45;sketch=1;" vertex="1" parent="1">
          <mxGeometry x="362" y="353.25" width="81" height="26.5" as="geometry" />
        </mxCell>
      </root>
    </mxGraphModel>
  </diagram>
</mxfile>
